<?xml version="1.0" encoding="UTF-8"?>
<svg xmlns="http://www.w3.org/2000/svg" width="120" height="169" viewBox="0 0 120 169">
    <g fill="#000" stroke="none">
        <path d="M3.657 89.592c8.936 12.806 8.865 18.584 8.808 24.19-.427 40.754 27.82 53.347 44.596 54.357a67.44 67.44 0 003.756.114 54.87 54.87 0 0041.266-17.972l9.32-10.274.157-.185 4.625-5.108A12.892 12.892 0 00109.782 113a11.583 11.583 0 00-9.89-14.586c.463-1.278.703-2.625.712-3.984A12.807 12.807 0 0090.3 81.837l15.44-15.496a12.878 12.878 0 10-18.5-17.916C70.324 66.483 49.292 87.03 40.997 90.403c-4.838 1.992-6.005.441-9.748-5.692A44.994 44.994 0 0021.06 72.047c-4.924-3.999-10.715-4.113-15.51-.313C.128 76.017-.655 83.388 3.657 89.592zm103.378 28.83a7.115 7.115 0 015.08 2.105 7.243 7.243 0 01-.1 10.274l-4.51 4.966a6.546 6.546 0 01-7.371-1.238l-.256-.27a6.588 6.588 0 01-.54-8.808l7.114-7.115.583.085zm-4.269-12.722a5.891 5.891 0 01.342 7.997c-.119.109-.228.228-.327.356l-8.168 8.167a6.574 6.574 0 01-6.802-1.423l-.341-.341a6.645 6.645 0 01-.399-8.766c1.139-.882 5.905-4.653 8.438-6.83a5.934 5.934 0 017.229.84h.028zm-9.96-16.379a7.115 7.115 0 012.106 5.08 9.008 9.008 0 01-2.989 6.005c-1.736 1.509-5.478 4.511-8.238 6.674a6.83 6.83 0 01-6.731-1.764l-.185-.185a6.916 6.916 0 010-9.776l6.688-6.688a7.115 7.115 0 019.335.64l.014.014zM9.093 76.131c2.732-2.163 5.478-2.078 8.381.27a39.686 39.686 0 018.908 11.184 30.238 30.238 0 004.923 6.76c.053.078.11.154.171.227.242.256 5.692 6.219.142 14.884a2.846 2.846 0 004.796 3.06 18.499 18.499 0 002.618-15.653 16.18 16.18 0 004.098-1.124c11.199-4.596 37.452-31.846 48.239-43.358a7.12 7.12 0 015.122-2.277c1.95-.03 3.828.73 5.208 2.107a7.186 7.186 0 010 10.174L72.728 91.299a12.607 12.607 0 000 17.873l.156.156a12.494 12.494 0 007.272 3.572 12.38 12.38 0 003.244 11.626l.114.1.114.113a12.28 12.28 0 008.68 3.557 12.223 12.223 0 003.529 9.961l.213.242a12.351 12.351 0 005.99 3.301l-4.268 4.71-.114.128a49.918 49.918 0 01-40.256 15.81 44.496 44.496 0 01-20.547-7.115h2.561c7.115-.456 13.618-4.767 19.424-12.807a2.846 2.846 0 00-4.625-3.315c-4.739 6.602-9.819 10.131-15.112 10.487-7.385.484-13.063-5.422-13.148-5.507a2.846 2.846 0 00-.413-.356c-4.454-7.03-7.513-16.677-7.37-30.01.085-7.528-.598-14.33-9.833-27.534-2.15-3.017-2.733-7.371.754-10.16z" transform="translate(-120 -277) translate(120 277)"></path>
        <path d="M53.404 44.028l-6.29.911 4.554 4.44-1.082 6.26 5.621-2.959 5.62 2.96-1.08-6.261 4.553-4.44-6.29-.91-2.803-5.692-2.803 5.691zm9.15-34.222l1.92 4.326 2.277-4.17 4.71-.483-3.258-3.444.996-4.639-4.283 2.035-4.113-2.376.612 4.71-3.529 3.173 4.668.868zM4.084 24.705a2.846 2.846 0 014.013 0L33.24 49.848a2.848 2.848 0 01-4.027 4.027L4.083 28.732a2.846 2.846 0 010-4.027zm32.34-17.866a2.85 2.85 0 014.757 1.324l8.537 34.151a2.85 2.85 0 01-5.52 1.423L35.658 9.586a2.85 2.85 0 01.765-2.747zM82.46.63a2.846 2.846 0 012.846 2.845v35.105a2.846 2.846 0 01-5.692 0V3.474A2.846 2.846 0 0182.46.628zM21.259 4.64l3.43 3.258 4.638-.967-2.049 4.269 2.377 4.112-4.71-.626-3.174 3.529-.868-4.667-4.325-1.936 4.169-2.262.512-4.71z" transform="translate(-120 -277) translate(120 277)"></path>
    </g>
</svg>
