<svg height="512" width="512" xmlns="http://www.w3.org/2000/svg"><path d="M407 302c-35.66 0-67.219 17.873-86.205 45.127l-116.132-58.066C208.121 278.661 210 267.546 210 256s-1.879-22.661-5.337-33.061l116.132-58.066C339.781 192.127 371.34 210 407 210c57.897 0 105-47.103 105-105S464.897 0 407 0 302 47.103 302 105c0 11.546 1.879 22.661 5.337 33.061l-116.132 58.066C172.219 168.873 140.66 151 105 151 47.103 151 0 198.103 0 256s47.103 105 105 105c35.66 0 67.219-17.873 86.205-45.127l116.132 58.066A104.604 104.604 0 00302 407c0 57.897 47.103 105 105 105s105-47.103 105-105-47.103-105-105-105z"/></svg>
