<svg width="299" height="62" xmlns="http://www.w3.org/2000/svg"><path d="M.58 60.217h19.964v-15.95h16.402v-16.32H20.544v-9.334h21.562V2.231H.58v57.986zm44.659 0h19.227V.5H45.239v59.717zm24.08 0h19.227V16.51H69.319v43.706zm-.123-46.487h19.473V.5H69.196v13.23zm44.658 1.669c-15.295 0-21.5 5.254-21.5 22.934 0 16.506 4.607 22.997 21.5 22.997 7.495 0 15.726-2.411 15.726-2.411l-.614-15.146s-9.03.618-12.286.618c-3.686 0-4.914-1.483-4.914-6.058 0-4.513 1.29-6.058 4.914-6.058 3.256 0 12.101.68 12.101.68l.615-15.33s-8.907-2.226-15.542-2.226zm38.762 44.818V47.42h2.58l4.054 12.797h19.289l-6.758-22.564 6.205-21.142h-18.982l-3.87 14.033h-2.518V.5h-19.227v59.717h19.227zm28.503 0h19.902V30.359h.983l4.915 29.24h16.647l4.975-29.24h.983v29.858h19.965V2.23h-30.53l-3.748 22.131-4.422-22.13h-29.67v57.985zm95.705-13.167c-2.948 0-4.115-.866-4.238-3.03h24.878l.86-8.53c0-13.786-7.555-20.091-22.483-20.091-15.971 0-22.482 8.53-22.482 23.8 0 15.33 5.712 22.13 22.052 22.13 10.628 0 22.053-2.472 22.053-2.472l-.43-12.55s-12.285.743-20.21.743zm-4.3-13.6c.062-3.153.737-4.575 3.317-4.575 2.335 0 3.195 1.298 3.195 4.575h-6.512z" fill="#000" fill-rule="nonzero"/></svg>
